# xmcd
#
# Track frame offsets: 
#        150
#        9545
#        28605
#        47490
#        60172
#        79615
#        93447
#        111255
#        130352
#        145147
#        164775
#        184790
#        195707
#
# Disc length: 2876 seconds
#
# Revision: 2
# Processed by: cddbd v1.5.2PL0 Copyright (c) Steve Scherf et al.
# Submitted via: ExactAudioCopy v0.95b4
#
DISCID=aa0b3a0d
DTITLE=Fox Family - Follow My Lead
DYEAR=1995
DGENRE=Bluegrass
TTITLE0=Paint the Town
TTITLE1=Jesse
TTITLE2=The Hobo and the Rose
TTITLE3=Cowboy Sweetheart
TTITLE4=Blood From a Stone
TTITLE5=Walt's Breakdown
TTITLE6=Widow Janie
TTITLE7=You're On My Mind
TTITLE8=Follow My Lead
TTITLE9=Lord Hear My Prayer
TTITLE10=Donnerville road
TTITLE11=How Blue
TTITLE12=I'm Your Papa
EXTD=
EXTT0=
EXTT1=
EXTT2=
EXTT3=
EXTT4=
EXTT5=
EXTT6=
EXTT7=
EXTT8=
EXTT9=
EXTT10=
EXTT11=
EXTT12=
PLAYORDER=
